<?xml version="1.0" encoding="UTF-8" standalone="no"?><!DOCTYPE svg PUBLIC "-//W3C//DTD SVG 1.1//EN" "http://www.w3.org/Graphics/SVG/1.1/DTD/svg11.dtd"><svg width="100%" height="100%" viewBox="0 0 36 36" version="1.1" xmlns="http://www.w3.org/2000/svg" xmlns:xlink="http://www.w3.org/1999/xlink" xml:space="preserve" xmlns:serif="http://www.serif.com/" style="fill-rule:evenodd;clip-rule:evenodd;stroke-linejoin:round;stroke-miterlimit:1.41421;"><rect id="Artboard2" x="0" y="0" width="36" height="36" style="fill:none;"/><rect x="0" y="0" width="36" height="36" style="fill:#2e2e4d;"/><text x="1.355px" y="33.254px" style="font-family:'Comfortaa-Regular', 'Comfortaa';font-size:6.363px;fill:#fff;stroke:#ddfffa;stroke-width:0.24px;">Messages</text><path d="M25.966,21.884l-13.043,0c-1.318,0 -2.387,-1.07 -2.387,-2.387l0,-7.796l-3.117,-2.992c-0.21,-0.201 -0.276,-0.51 -0.168,-0.779c0.109,-0.27 0.37,-0.446 0.661,-0.446c1.802,0 18.054,0 18.054,0c1.317,0 2.387,1.069 2.387,2.387l0,9.626c0,1.317 -1.07,2.387 -2.387,2.387Zm-6.522,-3.417c0.337,0 0.61,-0.274 0.61,-0.611c0,-0.336 -0.273,-0.61 -0.61,-0.61l-5.613,0c-0.337,0 -0.61,0.274 -0.61,0.61c0,0.337 0.273,0.611 0.61,0.611l5.613,0Zm5.614,-3.173c0.337,0 0.61,-0.274 0.61,-0.61c0,-0.337 -0.273,-0.611 -0.61,-0.611l-11.227,0c-0.337,0 -0.61,0.274 -0.61,0.611c0,0.336 0.273,0.61 0.61,0.61l11.227,0Zm-1.22,-3.173c0.336,0 0.61,-0.274 0.61,-0.61c0,-0.337 -0.274,-0.61 -0.61,-0.61l-10.007,0c-0.337,0 -0.61,0.273 -0.61,0.61c0,0.336 0.273,0.61 0.61,0.61l10.007,0Z" style="fill:#fff;"/></svg>