<?xml version="1.0" encoding="UTF-8" standalone="no"?>
<!DOCTYPE svg PUBLIC "-//W3C//DTD SVG 1.1//EN" "http://www.w3.org/Graphics/SVG/1.1/DTD/svg11.dtd">
<svg width="100%" height="100%" viewBox="0 0 150 150" version="1.1" xmlns="http://www.w3.org/2000/svg" xmlns:xlink="http://www.w3.org/1999/xlink" xml:space="preserve" xmlns:serif="http://www.serif.com/" style="fill-rule:evenodd;clip-rule:evenodd;stroke-linejoin:round;stroke-miterlimit:1.41421;">
    <g transform="matrix(1,0,0,1,-162.61,0)">
        <g id="Artboard2" transform="matrix(1,0,0,1,162.61,0)">
            <rect x="0" y="0" width="150" height="150" style="fill:none;"/>
            <rect x="0" y="0" width="150" height="150" style="fill:rgb(46,46,77);"/>
            <g transform="matrix(1.7264,0,0,1.7264,-49.599,-94.5078)">
                <text x="32px" y="135px" style="font-family:'Comfortaa-Regular', 'Comfortaa';font-size:15.357px;fill:rgb(221,255,250);stroke:rgb(221,255,250);stroke-width:0.58px;">Messages</text>
            </g>
            <g transform="matrix(1.01695,0,0,1.01695,-168.247,-4.41157)">
                <path d="M271.83,94L218.391,94C212.993,94 208.61,89.618 208.61,84.22L208.61,52.28L195.839,40.02C194.981,39.196 194.709,37.932 195.154,36.828C195.598,35.723 196.669,35 197.859,35C205.241,35 271.83,35 271.83,35C277.228,35 281.61,39.382 281.61,44.78L281.61,84.22C281.61,89.618 277.228,94 271.83,94ZM245.11,80C246.49,80 247.61,78.88 247.61,77.5C247.61,76.12 246.49,75 245.11,75L222.11,75C220.73,75 219.61,76.12 219.61,77.5C219.61,78.88 220.731,80 222.11,80L245.11,80ZM268.11,67C269.49,67 270.61,65.88 270.61,64.5C270.61,63.12 269.49,62 268.11,62L222.11,62C220.73,62 219.61,63.12 219.61,64.5C219.61,65.88 220.731,67 222.11,67L268.11,67ZM263.11,54C264.49,54 265.61,52.88 265.61,51.5C265.61,50.12 264.49,49 263.11,49L222.11,49C220.73,49 219.61,50.12 219.61,51.5C219.61,52.88 220.731,54 222.11,54L263.11,54Z" style="fill:rgb(221,255,250);"/>
            </g>
        </g>
    </g>
</svg>
