<?xml version="1.0" encoding="UTF-8" standalone="no"?>
<!DOCTYPE svg PUBLIC "-//W3C//DTD SVG 1.1//EN" "http://www.w3.org/Graphics/SVG/1.1/DTD/svg11.dtd">
<svg width="100%" height="100%" viewBox="0 0 150 150" version="1.1" xmlns="http://www.w3.org/2000/svg" xmlns:xlink="http://www.w3.org/1999/xlink" xml:space="preserve" xmlns:serif="http://www.serif.com/" style="fill-rule:evenodd;clip-rule:evenodd;stroke-linejoin:round;stroke-miterlimit:1.41421;">
    <rect id="Artboard1" x="0" y="0" width="150" height="150" style="fill:none;"/>
    <g id="Artboard11" serif:id="Artboard1">
        <rect x="0" y="0" width="150" height="150" style="fill:rgb(46,46,77);"/>
        <g transform="matrix(1.29264,0,0,1.29264,-6.2793,-48.8638)">
            <path d="M84.516,67.5L33.484,67.5C31.561,67.5 30,65.939 30,64.016L30,55.984C30,54.061 31.561,52.5 33.484,52.5L84.516,52.5C86.439,52.5 88,54.061 88,55.984L88,57.743L94.5,57.743L94.651,57.752C95.266,57.865 95.706,58.155 95.757,59L95.757,108C95.716,108.677 95.192,109.215 94.5,109.257L88,109.257L88,110.016C88,111.939 86.439,113.5 84.516,113.5L33.484,113.5C31.561,113.5 30,111.939 30,110.016L30,101.984C30,100.061 31.561,98.5 33.484,98.5L84.516,98.5C86.439,98.5 88,100.061 88,101.984L88,106.743L93.243,106.743L93.243,60.257L88,60.257L88,64.016C88,65.939 86.439,67.5 84.516,67.5ZM81,101.984C83.208,101.984 85,103.783 85,106C85,108.217 83.208,110.016 81,110.016C78.792,110.016 77,108.217 77,106C77,103.783 78.792,101.984 81,101.984ZM42.515,102L34.985,102C34.166,102 33.5,102.666 33.5,103.485L33.5,108.515C33.5,109.334 34.166,110 34.985,110L42.515,110C43.334,110 44,109.334 44,108.515L44,103.485C44,102.666 43.334,102 42.515,102ZM81,103.992C82.104,103.992 83,104.892 83,106C83,107.108 82.104,108.008 81,108.008C79.896,108.008 79,107.108 79,106C79,104.892 79.896,103.992 81,103.992ZM70.25,104.25L50.75,104.25C49.784,104.25 49,105.034 49,106C49,106.966 49.784,107.75 50.75,107.75L70.25,107.75C71.216,107.75 72,106.966 72,106C72,105.034 71.216,104.25 70.25,104.25ZM83.75,93.5C84.578,93.5 85.25,94.172 85.25,95C85.25,95.828 84.578,96.5 83.75,96.5L34.25,96.5C33.422,96.5 32.75,95.828 32.75,95C32.75,94.172 33.422,93.5 34.25,93.5L83.75,93.5ZM84.516,90.5L33.484,90.5C31.561,90.5 30,88.939 30,87.016L30,78.984C30,77.061 31.561,75.5 33.484,75.5L84.516,75.5C86.439,75.5 88,77.061 88,78.984L88,87.016C88,88.939 86.439,90.5 84.516,90.5ZM81,78.984C83.208,78.984 85,80.783 85,83C85,85.217 83.208,87.016 81,87.016C78.792,87.016 77,85.217 77,83C77,80.783 78.792,78.984 81,78.984ZM42.515,79L34.985,79C34.166,79 33.5,79.666 33.5,80.485L33.5,85.515C33.5,86.334 34.166,87 34.985,87L42.515,87C43.334,87 44,86.334 44,85.515L44,80.485C44,79.666 43.334,79 42.515,79ZM81,80.992C82.104,80.992 83,81.892 83,83C83,84.108 82.104,85.008 81,85.008C79.896,85.008 79,84.108 79,83C79,81.892 79.896,80.992 81,80.992ZM70.25,81.25L50.75,81.25C49.784,81.25 49,82.034 49,83C49,83.966 49.784,84.75 50.75,84.75L70.25,84.75C71.216,84.75 72,83.966 72,83C72,82.034 71.216,81.25 70.25,81.25ZM83.75,70C84.578,70 85.25,70.672 85.25,71.5C85.25,72.328 84.578,73 83.75,73L34.25,73C33.422,73 32.75,72.328 32.75,71.5C32.75,70.672 33.422,70 34.25,70L83.75,70ZM81,55.984C83.208,55.984 85,57.783 85,60C85,62.217 83.208,64.016 81,64.016C78.792,64.016 77,62.217 77,60C77,57.783 78.792,55.984 81,55.984ZM42.515,56L34.985,56C34.166,56 33.5,56.666 33.5,57.485L33.5,62.515C33.5,63.334 34.166,64 34.985,64L42.515,64C43.334,64 44,63.334 44,62.515L44,57.485C44,56.666 43.334,56 42.515,56ZM81,57.992C82.104,57.992 83,58.892 83,60C83,61.108 82.104,62.008 81,62.008C79.896,62.008 79,61.108 79,60C79,58.892 79.896,57.992 81,57.992ZM70.25,58.25L50.75,58.25C49.784,58.25 49,59.034 49,60C49,60.966 49.784,61.75 50.75,61.75L70.25,61.75C71.216,61.75 72,60.966 72,60C72,59.034 71.216,58.25 70.25,58.25Z" style="fill:rgb(221,255,250);"/>
        </g>
        <g transform="matrix(1.7264,0,0,1.7264,-31.8743,-94.5078)">
            <text x="32px" y="135px" style="font-family:'Comfortaa-Regular', 'Comfortaa';font-size:15.357px;fill:rgb(221,255,250);stroke:rgb(221,255,250);stroke-width:0.58px;">Serv<tspan x="66.813px " y="135px ">e</tspan>rs</text>
        </g>
    </g>
</svg>
