<?xml version="1.0" encoding="UTF-8" standalone="no"?><!DOCTYPE svg PUBLIC "-//W3C//DTD SVG 1.1//EN" "http://www.w3.org/Graphics/SVG/1.1/DTD/svg11.dtd"><svg width="100%" height="100%" viewBox="0 0 36 36" version="1.1" xmlns="http://www.w3.org/2000/svg" xmlns:xlink="http://www.w3.org/1999/xlink" xml:space="preserve" xmlns:serif="http://www.serif.com/" style="fill-rule:evenodd;clip-rule:evenodd;stroke-linejoin:round;stroke-miterlimit:1.41421;"><rect id="Artboard1" x="0" y="0" width="36" height="36" style="fill:none;"/><g id="Artboard11" serif:id="Artboard1"><rect x="0" y="0" width="36" height="36" style="fill:#2e2e4d;"/><path d="M24.713,9.214l-15.832,0c-0.597,0 -1.081,-0.485 -1.081,-1.081l0,-2.492c0,-0.597 0.484,-1.081 1.081,-1.081l15.832,0c0.596,0 1.081,0.484 1.081,1.081l0,0.546l2.016,0l0.047,0.002c0.191,0.035 0.327,0.125 0.343,0.388l0,15.201c-0.013,0.21 -0.175,0.377 -0.39,0.39l-2.016,0l0,0.236c0,0.596 -0.485,1.08 -1.081,1.08l-15.832,0c-0.597,0 -1.081,-0.484 -1.081,-1.08l0,-2.492c0,-0.597 0.484,-1.081 1.081,-1.081l15.832,0c0.596,0 1.081,0.484 1.081,1.081l0,1.476l1.626,0l0,-14.422l-1.626,0l0,1.167c0,0.596 -0.485,1.081 -1.081,1.081Zm-1.091,10.698c0.685,0 1.241,0.558 1.241,1.246c0,0.687 -0.556,1.246 -1.241,1.246c-0.685,0 -1.241,-0.559 -1.241,-1.246c0,-0.688 0.556,-1.246 1.241,-1.246Zm-11.94,0.005l-2.335,0c-0.255,0 -0.461,0.206 -0.461,0.46l0,1.561c0,0.254 0.206,0.46 0.461,0.46l2.335,0c0.255,0 0.461,-0.206 0.461,-0.46l0,-1.561c0,-0.254 -0.206,-0.46 -0.461,-0.46Zm11.94,0.618c0.342,0 0.62,0.279 0.62,0.623c0,0.343 -0.278,0.623 -0.62,0.623c-0.342,0 -0.621,-0.28 -0.621,-0.623c0,-0.344 0.279,-0.623 0.621,-0.623Zm-3.335,0.08l-6.05,0c-0.299,0 -0.543,0.243 -0.543,0.543c0,0.299 0.244,0.542 0.543,0.542l6.05,0c0.3,0 0.543,-0.243 0.543,-0.542c0,-0.3 -0.243,-0.543 -0.543,-0.543Zm4.188,-3.335c0.257,0 0.465,0.208 0.465,0.465c0,0.257 -0.208,0.465 -0.465,0.465l-15.357,0c-0.256,0 -0.465,-0.208 -0.465,-0.465c0,-0.257 0.209,-0.465 0.465,-0.465l15.357,0Zm0.238,-0.931l-15.832,0c-0.597,0 -1.081,-0.484 -1.081,-1.081l0,-2.492c0,-0.596 0.484,-1.081 1.081,-1.081l15.832,0c0.596,0 1.081,0.485 1.081,1.081l0,2.492c0,0.597 -0.485,1.081 -1.081,1.081Zm-1.091,-3.573c0.685,0 1.241,0.558 1.241,1.246c0,0.688 -0.556,1.246 -1.241,1.246c-0.685,0 -1.241,-0.558 -1.241,-1.246c0,-0.688 0.556,-1.246 1.241,-1.246Zm-11.94,0.005l-2.335,0c-0.255,0 -0.461,0.207 -0.461,0.461l0,1.56c0,0.255 0.206,0.461 0.461,0.461l2.335,0c0.255,0 0.461,-0.206 0.461,-0.461l0,-1.56c0,-0.254 -0.206,-0.461 -0.461,-0.461Zm11.94,0.618c0.342,0 0.62,0.279 0.62,0.623c0,0.344 -0.278,0.623 -0.62,0.623c-0.342,0 -0.621,-0.279 -0.621,-0.623c0,-0.344 0.279,-0.623 0.621,-0.623Zm-3.335,0.08l-6.05,0c-0.299,0 -0.543,0.244 -0.543,0.543c0,0.3 0.244,0.543 0.543,0.543l6.05,0c0.3,0 0.543,-0.243 0.543,-0.543c0,-0.299 -0.243,-0.543 -0.543,-0.543Zm4.188,-3.49c0.257,0 0.465,0.209 0.465,0.465c0,0.257 -0.208,0.466 -0.465,0.466l-15.357,0c-0.256,0 -0.465,-0.209 -0.465,-0.466c0,-0.256 0.209,-0.465 0.465,-0.465l15.357,0Zm-0.853,-4.348c0.685,0 1.241,0.558 1.241,1.246c0,0.687 -0.556,1.246 -1.241,1.246c-0.685,0 -1.241,-0.559 -1.241,-1.246c0,-0.688 0.556,-1.246 1.241,-1.246Zm-11.94,0.005l-2.335,0c-0.255,0 -0.461,0.206 -0.461,0.461l0,1.56c0,0.254 0.206,0.461 0.461,0.461l2.335,0c0.255,0 0.461,-0.207 0.461,-0.461l0,-1.56c0,-0.255 -0.206,-0.461 -0.461,-0.461Zm11.94,0.618c0.342,0 0.62,0.279 0.62,0.623c0,0.344 -0.278,0.623 -0.62,0.623c-0.342,0 -0.621,-0.279 -0.621,-0.623c0,-0.344 0.279,-0.623 0.621,-0.623Zm-3.335,0.08l-6.05,0c-0.299,0 -0.543,0.243 -0.543,0.543c0,0.299 0.244,0.543 0.543,0.543l6.05,0c0.3,0 0.543,-0.244 0.543,-0.543c0,-0.3 -0.243,-0.543 -0.543,-0.543Z" style="fill:#fff;"/><text x="5.609px" y="33.254px" style="font-family:'Comfortaa-Regular', 'Comfortaa';font-size:6.363px;fill:#fff;stroke:#ddfffa;stroke-width:0.24px;">Serv<tspan x="20.033px " y="33.254px ">e</tspan>rs</text></g></svg>