<?xml version="1.0" encoding="UTF-8" standalone="no"?><!DOCTYPE svg PUBLIC "-//W3C//DTD SVG 1.1//EN" "http://www.w3.org/Graphics/SVG/1.1/DTD/svg11.dtd"><svg width="100%" height="100%" viewBox="0 0 36 36" version="1.1" xmlns="http://www.w3.org/2000/svg" xmlns:xlink="http://www.w3.org/1999/xlink" xml:space="preserve" xmlns:serif="http://www.serif.com/" style="fill-rule:evenodd;clip-rule:evenodd;stroke-linejoin:round;stroke-miterlimit:1.41421;"><rect id="Artboard3" x="0" y="0" width="36" height="36" style="fill:none;"/><rect x="0" y="0" width="36" height="36" style="fill:#2e2e4d;"/><text x="9.579px" y="33.254px" style="font-family:'Comfortaa-Regular', 'Comfortaa';font-size:6.363px;fill:#fff;stroke:#ddfffa;stroke-width:0.24px;">T<tspan x="12.792px " y="33.254px ">o</tspan>ols</text><g><path d="M9.177,11.588c0.107,0.367 0.255,0.72 0.443,1.051l-0.534,0.673c-0.174,0.22 -0.155,0.534 0.041,0.732l0.92,0.92c0.198,0.198 0.512,0.215 0.732,0.041l0.669,-0.529c0.344,0.198 0.71,0.353 1.092,0.462l0.1,0.86c0.033,0.279 0.268,0.488 0.547,0.488l1.301,0c0.279,0 0.514,-0.209 0.547,-0.488l0.095,-0.83c0.41,-0.107 0.802,-0.266 1.171,-0.473l0.647,0.512c0.22,0.175 0.534,0.155 0.732,-0.041l0.919,-0.92c0.199,-0.198 0.216,-0.512 0.042,-0.732l-0.504,-0.638c0.21,-0.362 0.373,-0.748 0.482,-1.151l0.776,-0.089c0.279,-0.033 0.488,-0.268 0.488,-0.547l0,-1.301c0,-0.279 -0.209,-0.514 -0.488,-0.547l-0.765,-0.089c-0.105,-0.399 -0.262,-0.78 -0.462,-1.138l0.471,-0.594c0.174,-0.221 0.154,-0.534 -0.042,-0.733l-0.917,-0.917c-0.198,-0.198 -0.512,-0.216 -0.732,-0.041l-0.578,0.457c-0.374,-0.22 -0.775,-0.388 -1.196,-0.501l-0.087,-0.747c-0.033,-0.279 -0.268,-0.488 -0.547,-0.488l-1.301,0c-0.279,0 -0.514,0.209 -0.547,0.488l-0.087,0.747c-0.431,0.116 -0.843,0.29 -1.227,0.519l-0.599,-0.475c-0.22,-0.175 -0.534,-0.155 -0.732,0.041l-0.92,0.92c-0.198,0.198 -0.215,0.512 -0.041,0.732l0.501,0.634c-0.2,0.362 -0.353,0.747 -0.453,1.148l-0.802,0.092c-0.279,0.032 -0.488,0.268 -0.488,0.547l0,1.3c0,0.279 0.209,0.515 0.488,0.547l0.845,0.098Zm4.714,-3.519c1.185,0 2.15,0.966 2.15,2.151c0,1.185 -0.965,2.151 -2.15,2.151c-1.186,0 -2.151,-0.966 -2.151,-2.151c0,-1.185 0.965,-2.151 2.151,-2.151Z" style="fill:#fff;fill-rule:nonzero;"/><path d="M26.751,11.909l-0.686,-0.58c-0.212,-0.179 -0.523,-0.17 -0.724,0.02l-0.379,0.355c-0.32,-0.155 -0.66,-0.264 -1.011,-0.327l-0.107,-0.523c-0.054,-0.27 -0.305,-0.457 -0.579,-0.436l-0.896,0.077c-0.274,0.024 -0.49,0.248 -0.499,0.525l-0.017,0.531c-0.345,0.125 -0.669,0.295 -0.966,0.508l-0.453,-0.301c-0.231,-0.152 -0.538,-0.109 -0.717,0.103l-0.579,0.691c-0.179,0.211 -0.17,0.523 0.019,0.723l0.397,0.423c-0.137,0.309 -0.236,0.634 -0.292,0.967l-0.567,0.116c-0.27,0.054 -0.457,0.305 -0.435,0.579l0.076,0.896c0.024,0.274 0.248,0.49 0.525,0.499l0.612,0.019c0.111,0.292 0.257,0.569 0.434,0.828l-0.342,0.517c-0.153,0.231 -0.109,0.538 0.102,0.717l0.687,0.579c0.211,0.179 0.523,0.17 0.723,-0.019l0.449,-0.421c0.294,0.138 0.603,0.24 0.922,0.301l0.124,0.614c0.054,0.271 0.305,0.458 0.579,0.436l0.896,-0.076c0.275,-0.024 0.49,-0.248 0.499,-0.525l0.02,-0.602c0.326,-0.115 0.636,-0.272 0.921,-0.466l0.495,0.327c0.231,0.153 0.538,0.109 0.717,-0.102l0.579,-0.687c0.179,-0.211 0.17,-0.523 -0.019,-0.723l-0.399,-0.423c0.146,-0.309 0.253,-0.636 0.314,-0.972l0.545,-0.111c0.27,-0.054 0.457,-0.305 0.435,-0.58l-0.076,-0.895c-0.024,-0.275 -0.248,-0.49 -0.525,-0.499l-0.547,-0.018c-0.113,-0.318 -0.266,-0.618 -0.455,-0.897l0.298,-0.449c0.157,-0.231 0.113,-0.541 -0.098,-0.719Zm-3.375,5.177c-0.968,0.083 -1.822,-0.638 -1.902,-1.606c-0.083,-0.967 0.638,-1.822 1.605,-1.902c0.968,-0.083 1.822,0.638 1.903,1.606c0.083,0.967 -0.639,1.821 -1.606,1.902Z" style="fill:#fff;fill-rule:nonzero;"/><path d="M12.311,19.496c-0.275,0.028 -0.486,0.259 -0.488,0.536l-0.007,0.551c-0.004,0.277 0.201,0.512 0.475,0.547l0.406,0.053c0.067,0.246 0.163,0.481 0.287,0.703l-0.261,0.323c-0.175,0.216 -0.162,0.525 0.032,0.723l0.386,0.395c0.194,0.198 0.503,0.22 0.723,0.05l0.325,-0.251c0.229,0.135 0.471,0.242 0.724,0.316l0.043,0.419c0.028,0.274 0.259,0.486 0.536,0.488l0.551,0.006c0.277,0.005 0.513,-0.2 0.547,-0.475l0.051,-0.396c0.274,-0.068 0.536,-0.17 0.784,-0.305l0.305,0.246c0.216,0.174 0.525,0.161 0.723,-0.033l0.395,-0.386c0.198,-0.193 0.22,-0.503 0.05,-0.723l-0.233,-0.303c0.144,-0.24 0.255,-0.494 0.331,-0.763l0.362,-0.037c0.274,-0.028 0.486,-0.259 0.488,-0.536l0.006,-0.551c0.005,-0.277 -0.2,-0.512 -0.475,-0.547l-0.353,-0.046c-0.067,-0.265 -0.167,-0.523 -0.298,-0.762l0.22,-0.27c0.174,-0.216 0.161,-0.526 -0.033,-0.724l-0.385,-0.394c-0.194,-0.199 -0.504,-0.22 -0.724,-0.05l-0.264,0.202c-0.248,-0.15 -0.514,-0.266 -0.793,-0.344l-0.035,-0.342c-0.028,-0.275 -0.259,-0.486 -0.536,-0.488l-0.551,-0.007c-0.277,-0.004 -0.512,0.201 -0.547,0.475l-0.043,0.34c-0.288,0.074 -0.565,0.188 -0.822,0.336l-0.272,-0.223c-0.216,-0.174 -0.525,-0.161 -0.724,0.033l-0.396,0.388c-0.199,0.194 -0.22,0.503 -0.05,0.723l0.233,0.301c-0.135,0.24 -0.242,0.495 -0.312,0.763l-0.381,0.039Zm3.558,-0.623c0.791,0.009 1.425,0.66 1.417,1.451c-0.009,0.791 -0.661,1.425 -1.452,1.416c-0.791,-0.008 -1.425,-0.66 -1.416,-1.451c0.009,-0.791 0.66,-1.425 1.451,-1.416Z" style="fill:#fff;fill-rule:nonzero;"/></g></svg>